<svg id="Layer_1" data-name="Layer 1" xmlns="http://www.w3.org/2000/svg" viewBox="0 0 363.33 289.41"><defs><style>.cls-1,.cls-3{fill:#231f20;}.cls-1,.cls-4{stroke:#fff;}.cls-1,.cls-2,.cls-3,.cls-4{stroke-miterlimit:10;}.cls-2{fill:#fff;}.cls-2,.cls-3{stroke:#231f20;}.cls-4{font-size:37.53px;fill:none;stroke-width:0.5px;font-family:TwCenMT-Regular, Tw Cen MT;}.cls-5{letter-spacing:0.02em;}.cls-6{letter-spacing:-0.02em;}</style></defs><path class="cls-1" d="M462.2,445.72C429,503.3,328,507.38,239,456,173.55,418.22,120.8,332.82,129.13,282.51c1.42-8.61-27-12.64-14.81-27.32,4.65-5.59,22.44-33.49,38.49-49.59,8.88-8.91,22.25,13.38,30,9.45,46.07-23.29,115.29-9.7,182,28.84C453.89,295.28,495.44,388.15,462.2,445.72Z" transform="translate(-110.77 -202.98)"/><path class="cls-2" d="M437.6,429.23c-25.45,44.08-105.65,45.43-179.13,3s-112.41-112.55-87-156.64,96.71-50.37,170.19-7.94S463.06,385.14,437.6,429.23Z" transform="translate(-110.77 -202.98)"/><ellipse class="cls-3" cx="303.22" cy="353.19" rx="47.21" ry="71.52" transform="translate(-269.96 203.64) rotate(-55.94)"/><text class="cls-4" transform="translate(139.37 143.96) rotate(35)">S<tspan class="cls-5" x="18.77" y="0">m</tspan><tspan x="44.55" y="0">u</tspan><tspan class="cls-6" x="60.99" y="0">g</tspan><tspan x="80.95" y="0">a</tspan></text><text class="cls-4" transform="translate(159.45 117.92) rotate(35)">Stein</text></svg>