<?xml version="1.0" encoding="UTF-8" standalone="no"?>
<!-- Created with Inkscape (http://www.inkscape.org/) -->

<svg
   xmlns:dc="http://purl.org/dc/elements/1.1/"
   xmlns:cc="http://creativecommons.org/ns#"
   xmlns:rdf="http://www.w3.org/1999/02/22-rdf-syntax-ns#"
   xmlns:svg="http://www.w3.org/2000/svg"
   xmlns="http://www.w3.org/2000/svg"
   xmlns:sodipodi="http://sodipodi.sourceforge.net/DTD/sodipodi-0.dtd"
   xmlns:inkscape="http://www.inkscape.org/namespaces/inkscape"
   width="500"
   height="300"
   viewBox="0 0 500 300"
   version="1.1"
   id="svg8"
   inkscape:version="0.92.4 (5da689c313, 2019-01-14)"
   sodipodi:docname="Steinn_Þ_Laserbox_final.svg">
  <defs
     id="defs2" />
  <sodipodi:namedview
     id="base"
     pagecolor="#ffffff"
     bordercolor="#666666"
     borderopacity="1.0"
     inkscape:pageopacity="0.0"
     inkscape:pageshadow="2"
     inkscape:zoom="2.4472656"
     inkscape:cx="243.64661"
     inkscape:cy="155.43297"
     inkscape:document-units="mm"
     inkscape:current-layer="layer1"
     showgrid="false"
     inkscape:window-width="1920"
     inkscape:window-height="1177"
     inkscape:window-x="-8"
     inkscape:window-y="-8"
     inkscape:window-maximized="1"
     width="500"
     height="300" />
  <metadata
     id="metadata5">
    <rdf:RDF>
      <cc:Work
         rdf:about="">
        <dc:format>image/svg+xml</dc:format>
        <dc:type
           rdf:resource="http://purl.org/dc/dcmitype/StillImage" />
        <dc:title></dc:title>
      </cc:Work>
    </rdf:RDF>
  </metadata>
  <g
     inkscape:label="Layer 1"
     inkscape:groupmode="layer"
     id="layer1"
     transform="translate(0,3)">
    <g
       id="g5167"
       transform="translate(7.763767,30.646449)">
      <path
         d="m 54,184.7 h 10.857941 v -3.1 h 11.142941 v 3.1 h 10.762941 v -3.1 h 11.142941 v 3.1 h 10.762946 v -3.1 h 11.14294 v 3.1 h 10.76294 v -3.1 h 11.14294 v 3.1 h 10.76294 v -3.1 h 11.14294 v 3.1 h 10.76294 v -3.1 h 11.14294 v 3.1 h 10.76294 v -3.1 h 11.14295 v 3.1 h 10.76294 v -3.1 h 11.14294 v 3.1 H 240.2"
         style="fill:none;stroke:#000000;stroke-width:1"
         inkscape:label="part"
         id="path5056"
         inkscape:connector-curvature="0" />
      <path
         d="m 240.2,184.7 v 7.235 h -3.1 v 10.05 h 3.1 v 10.43 h -3.1 v 10.05 h 3.1 v 7.235"
         style="fill:none;stroke:#000000;stroke-width:1"
         inkscape:label="part"
         id="path5058"
         inkscape:connector-curvature="0" />
      <path
         d="m 240.2,229.7 h -10.85794 v 3.1 h -11.14294 v -3.1 h -10.76294 v 3.1 h -11.14295 v -3.1 h -10.76294 v 3.1 h -11.14294 v -3.1 h -10.76294 v 3.1 h -11.14294 v -3.1 h -10.76294 v 3.1 h -11.14294 v -3.1 h -10.76294 v 3.1 h -11.14294 v -3.1 H 97.906764 v 3.1 H 86.763823 v -3.1 H 76.000882 v 3.1 H 64.857941 v -3.1 H 54"
         style="fill:none;stroke:#000000;stroke-width:1"
         inkscape:label="part"
         id="path5060"
         inkscape:connector-curvature="0" />
      <path
         d="m 54,229.7 v -7.235 h 3.1 v -10.05 H 54 v -10.43 h 3.1 v -10.05 H 54 V 184.7"
         style="fill:none;stroke:#000000;stroke-width:1"
         inkscape:label="part"
         id="path5062"
         inkscape:connector-curvature="0" />
    </g>
    <g
       id="g5161"
       transform="translate(7.763767,30.646449)">
      <path
         d="M 4.4999999,57.1 H 11.545 V 54 h 10.43 v 3.1 h 10.05 V 54 h 10.43 v 3.1 H 49.5"
         style="fill:none;stroke:#000000;stroke-width:1"
         inkscape:label="part"
         id="path5064"
         inkscape:connector-curvature="0" />
      <path
         d="m 49.5,57.1 v 8.277727 h 3.1 v 11.662727 h -3.1 v 11.282728 h 3.1 v 11.662727 h -3.1 v 11.282731 h 3.1 v 11.66272 h -3.1 v 11.28273 h 3.1 v 11.66273 h -3.1 v 11.28273 h 3.1 v 11.66272 H 49.5 V 177.1"
         style="fill:none;stroke:#000000;stroke-width:1"
         inkscape:label="part"
         id="path5066"
         inkscape:connector-curvature="0" />
      <path
         d="m 49.5,177.1 h -7.045 v 3.1 h -10.43 v -3.1 h -10.05 v 3.1 h -10.43 v -3.1 H 4.4999999"
         style="fill:none;stroke:#000000;stroke-width:1"
         inkscape:label="part"
         id="path5068"
         inkscape:connector-curvature="0" />
      <path
         d="m 4.4999999,177.1 v -8.27773 H 1.4 V 157.15955 H 4.4999999 V 145.87682 H 1.4 V 134.21409 H 4.4999999 V 122.93136 H 1.4 V 111.26864 H 4.4999999 V 99.985909 H 1.4 V 88.323182 H 4.4999999 V 77.040454 H 1.4 V 65.377727 H 4.4999999 V 57.1"
         style="fill:none;stroke:#000000;stroke-width:1"
         inkscape:label="part"
         id="path5070"
         inkscape:connector-curvature="0" />
    </g>
    <g
       id="g5149"
       transform="translate(7.763767,30.646449)">
      <path
         d="m 54,54 h 11.047941 v 3.1 H 75.810882 V 54 h 11.142941 v 3.1 H 97.716764 V 54 h 11.142946 v 3.1 h 10.76294 V 54 h 11.14294 v 3.1 h 10.76294 V 54 h 11.14294 v 3.1 h 10.76294 V 54 h 11.14294 v 3.1 h 10.76294 V 54 h 11.14294 v 3.1 h 10.76295 V 54 h 11.14294 v 3.1 h 10.76294 V 54 H 240.2"
         style="fill:none;stroke:#000000;stroke-width:1"
         inkscape:label="part"
         id="path5072"
         inkscape:connector-curvature="0" />
      <path
         d="m 240.2,54 v 11.567727 h -3.1 v 11.282727 h 3.1 v 11.662728 h -3.1 v 11.282727 h 3.1 v 11.662731 h -3.1 v 11.28272 h 3.1 v 11.66273 h -3.1 v 11.28273 h 3.1 v 11.66273 h -3.1 v 11.28272 h 3.1 V 180.2"
         style="fill:none;stroke:#000000;stroke-width:1"
         inkscape:label="part"
         id="path5074"
         inkscape:connector-curvature="0" />
      <path
         d="m 240.2,180.2 h -11.04794 v -3.1 h -10.76294 v 3.1 h -11.14294 v -3.1 h -10.76295 v 3.1 h -11.14294 v -3.1 h -10.76294 v 3.1 h -11.14294 v -3.1 h -10.76294 v 3.1 h -11.14294 v -3.1 h -10.76294 v 3.1 h -11.14294 v -3.1 h -10.76294 v 3.1 H 97.716764 v -3.1 H 86.953823 v 3.1 H 75.810882 v -3.1 H 65.047941 v 3.1 H 54"
         style="fill:none;stroke:#000000;stroke-width:1"
         inkscape:label="part"
         id="path5076"
         inkscape:connector-curvature="0" />
      <path
         d="m 54,180.2 v -11.56773 h 3.1 V 157.34955 H 54 v -11.66273 h 3.1 V 134.40409 H 54 v -11.66273 h 3.1 V 111.45864 H 54 V 99.795909 h 3.1 V 88.513182 H 54 V 76.850454 h 3.1 V 65.567727 H 54 V 54"
         style="fill:none;stroke:#000000;stroke-width:1"
         inkscape:label="part"
         id="path5078"
         inkscape:connector-curvature="0" />
    </g>
    <g
       id="g5143"
       transform="translate(7.763767,30.646449)">
      <path
         d="m 244.7,57.1 h 7.045 V 54 h 10.43 v 3.1 h 10.05 V 54 h 10.43 v 3.1 h 7.045"
         style="fill:none;stroke:#000000;stroke-width:1"
         inkscape:label="part"
         id="path5080"
         inkscape:connector-curvature="0" />
      <path
         d="m 289.7,57.1 v 8.277727 h 3.1 v 11.662727 h -3.1 v 11.282728 h 3.1 v 11.662727 h -3.1 v 11.282731 h 3.1 v 11.66272 h -3.1 v 11.28273 h 3.1 v 11.66273 h -3.1 v 11.28273 h 3.1 v 11.66272 h -3.1 V 177.1"
         style="fill:none;stroke:#000000;stroke-width:1"
         inkscape:label="part"
         id="path5082"
         inkscape:connector-curvature="0" />
      <path
         d="m 289.7,177.1 h -7.045 v 3.1 h -10.43 v -3.1 h -10.05 v 3.1 h -10.43 v -3.1 H 244.7"
         style="fill:none;stroke:#000000;stroke-width:1"
         inkscape:label="part"
         id="path5084"
         inkscape:connector-curvature="0" />
      <path
         d="m 244.7,177.1 v -8.27773 h -3.1 v -11.66272 h 3.1 v -11.28273 h -3.1 v -11.66273 h 3.1 v -11.28273 h -3.1 v -11.66272 h 3.1 V 99.985909 h -3.1 V 88.323182 h 3.1 V 77.040454 h -3.1 V 65.377727 h 3.1 V 57.1"
         style="fill:none;stroke:#000000;stroke-width:1"
         inkscape:label="part"
         id="path5086"
         inkscape:connector-curvature="0" />
    </g>
    <g
       id="g5137"
       transform="translate(7.763767,30.646449)">
      <path
         d="m 294.2,54 h 11.04794 v 3.1 h 10.76294 V 54 h 11.14294 v 3.1 h 10.76294 V 54 h 11.14295 v 3.1 h 10.76294 V 54 h 11.14294 v 3.1 h 10.76294 V 54 h 11.14294 v 3.1 h 10.76294 V 54 h 11.14294 v 3.1 h 10.76294 V 54 h 11.14294 v 3.1 h 10.76295 V 54 h 11.14294 v 3.1 h 10.76294 V 54 H 480.4"
         style="fill:none;stroke:#000000;stroke-width:1"
         inkscape:label="part"
         id="path5088"
         inkscape:connector-curvature="0" />
      <path
         d="m 480.4,54 v 11.567727 h -3.1 v 11.282727 h 3.1 c 12.25858,6.3336 0,11.662728 0,11.662728 h -3.1 v 11.282727 h 3.1 v 11.662731 h -3.1 v 11.28272 h 3.1 c 12.05427,6.3336 0,11.66273 0,11.66273 h -3.1 v 11.28273 h 3.1 v 11.66273 h -3.1 v 11.28272 h 3.1 V 180.2"
         style="fill:none;stroke:#000000;stroke-width:1"
         inkscape:label="part"
         id="path5090"
         inkscape:connector-curvature="0"
         sodipodi:nodetypes="cccccccccccccccccccccc" />
      <path
         d="m 480.4,180.2 h -11.04794 v -3.1 h -10.76294 v 3.1 h -11.14294 v -3.1 h -10.76295 v 3.1 h -11.14294 v -3.1 h -10.76294 v 3.1 h -11.14294 v -3.1 h -10.76294 v 3.1 h -11.14294 v -3.1 h -10.76294 v 3.1 h -11.14294 v -3.1 h -10.76294 v 3.1 h -11.14295 v -3.1 h -10.76294 v 3.1 h -11.14294 v -3.1 h -10.76294 v 3.1 H 294.2"
         style="fill:none;stroke:#000000;stroke-width:1"
         inkscape:label="part"
         id="path5092"
         inkscape:connector-curvature="0" />
      <path
         d="m 294.2,180.2 v -11.56773 h 3.1 v -11.28272 h -3.1 v -11.66273 h 3.1 v -11.28273 h -3.1 v -11.66273 h 3.1 v -11.28272 h -3.1 V 99.795909 h 3.1 V 88.513182 h -3.1 V 76.850454 h 3.1 V 65.567727 h -3.1 V 54"
         style="fill:none;stroke:#000000;stroke-width:1"
         inkscape:label="part"
         id="path5094"
         inkscape:connector-curvature="0" />
    </g>
    <g
       id="g5155"
       transform="translate(7.763767,30.646449)">
      <path
         d="M 54,4.4999999 H 64.857941 V 1.4 H 76.000882 V 4.4999999 H 86.763823 V 1.4 H 97.906764 V 4.4999999 H 108.66971 V 1.4 h 11.14294 v 3.0999999 h 10.76294 V 1.4 h 11.14294 v 3.0999999 h 10.76294 V 1.4 h 11.14294 v 3.0999999 h 10.76294 V 1.4 h 11.14294 v 3.0999999 h 10.76294 V 1.4 h 11.14295 v 3.0999999 h 10.76294 V 1.4 h 11.14294 V 4.4999999 H 240.2"
         style="fill:none;stroke:#000000;stroke-width:1"
         inkscape:label="part"
         id="path5096"
         inkscape:connector-curvature="0" />
      <path
         d="M 240.2,4.4999999 V 11.735 h -3.1 v 10.05 h 3.1 v 10.43 h -3.1 v 10.05 h 3.1 V 49.5"
         style="fill:none;stroke:#000000;stroke-width:1"
         inkscape:label="part"
         id="path5098"
         inkscape:connector-curvature="0" />
      <path
         d="m 240.2,49.5 h -10.85794 v 3.1 h -11.14294 v -3.1 h -10.76294 v 3.1 h -11.14295 v -3.1 h -10.76294 v 3.1 h -11.14294 v -3.1 h -10.76294 v 3.1 h -11.14294 v -3.1 h -10.76294 v 3.1 h -11.14294 v -3.1 h -10.76294 v 3.1 H 108.66971 V 49.5 H 97.906764 v 3.1 H 86.763823 V 49.5 H 76.000882 v 3.1 H 64.857941 V 49.5 H 54"
         style="fill:none;stroke:#000000;stroke-width:1"
         inkscape:label="part"
         id="path5100"
         inkscape:connector-curvature="0" />
      <path
         d="m 54,49.5 v -7.235 h 3.1 V 32.215 H 54 v -10.43 h 3.1 V 11.735 H 54 V 4.4999999"
         style="fill:none;stroke:#000000;stroke-width:1"
         inkscape:label="part"
         id="path5102"
         inkscape:connector-curvature="0" />
    </g>
    <flowRoot
       xml:space="preserve"
       id="flowRoot5213"
       style="font-style:normal;font-weight:normal;font-size:40px;line-height:1.25;font-family:sans-serif;letter-spacing:0px;word-spacing:0px;fill:#000000;fill-opacity:1;stroke:none"><flowRegion
         id="flowRegion5215"><rect
           id="rect5217"
           width="229.23543"
           height="182.24422"
           x="306.05588"
           y="68.581802" /></flowRegion><flowPara
         id="flowPara5221" /></flowRoot>    <text
       xml:space="preserve"
       style="font-style:normal;font-weight:normal;font-size:40px;line-height:1.25;font-family:sans-serif;letter-spacing:0px;word-spacing:0px;fill:#000000;fill-opacity:1;stroke:none"
       x="279.49561"
       y="99.228249"
       id="text5227"><tspan
         sodipodi:role="line"
         x="279.49561"
         y="134.61887"
         id="tspan5229" /></text>
    <text
       xml:space="preserve"
       style="font-style:normal;font-weight:normal;font-size:40px;line-height:1.25;font-family:sans-serif;letter-spacing:0px;word-spacing:0px;fill:#000000;fill-opacity:1;stroke:none"
       x="581.46527"
       y="139.27293"
       id="text5357"><tspan
         sodipodi:role="line"
         id="tspan5355"
         x="581.46527"
         y="174.66356" /></text>
    <g
       aria-label="steinsmuga"
       transform="matrix(0.4204686,0,0,0.4204686,312.03225,156.5345)"
       style="font-weight:300;font-size:120px;font-family:SegoeUI-Semilight, 'Segoe UI';fill:none;fill-opacity:1;stroke:#ff0000;stroke-miterlimit:10;stroke-opacity:1"
       id="text5392">
      <path
         inkscape:connector-curvature="0"
         d="M 6.5039062,-2.6367188 V -9.140625 q 3.0468751,2.6367188 7.3828128,4.1601563 4.335937,1.5234374 7.5,1.5234374 14.121093,0 14.121093,-11.5429687 0,-3.984375 -3.105468,-6.796875 -3.105469,-2.8125 -10.078125,-5.800781 -8.613281,-3.75 -12.128906,-7.734375 -3.4570318,-4.042969 -3.4570318,-9.785156 0,-7.324219 5.5664068,-11.835938 5.624999,-4.511719 13.828124,-4.511719 7.734375,0 13.242188,3.164063 v 6.09375 q -6.679688,-4.335938 -13.828125,-4.335938 -5.917969,0 -9.550781,3.105469 -3.632813,3.046875 -3.632813,7.96875 0,4.277344 2.285157,6.972656 2.285156,2.636719 10.078124,6.09375 9.375,4.21875 12.890625,7.851563 3.515625,3.574219 3.515625,9.550781 0,7.1484375 -5.390625,11.8359375 -5.332031,4.6289062 -14.765625,4.6289062 -8.671874,0 -14.4726558,-4.1015625 z"
         style="font-weight:300;font-size:120px;font-family:SegoeUI-Semilight, 'Segoe UI';fill:none;fill-opacity:1;stroke:#ff0000;stroke-miterlimit:10;stroke-opacity:1"
         id="path5942" />
      <path
         inkscape:connector-curvature="0"
         d="m 82.089844,-0.8203125 q -4.21875,1.9921875 -7.910157,1.9921875 -13.300781,0 -13.300781,-15.9375 v -40.3125 H 50.097656 V -60 h 10.78125 v -15.585937 q 1.289063,-0.46875 2.695313,-0.9375 1.40625,-0.410157 2.695312,-0.878907 V -60 h 15.820313 v 4.921875 H 66.269531 v 39.609375 q 0,6.2109375 1.933594,9.0234375 1.992187,2.7539062 6.679687,2.7539062 3.339844,0 7.207032,-2.1679687 z"
         style="letter-spacing:-0.01em;fill:none;fill-opacity:1;stroke:#ff0000;stroke-opacity:1"
         id="path5944" />
      <path
         inkscape:connector-curvature="0"
         d="m 96.858437,-29.765625 q 0,12.363281 5.683593,19.335937 5.74219,6.9726567 15.70313,6.9726567 10.07812,0 19.6875,-7.4414067 v 5.742188 q -9.31641,6.6210937 -20.80079,6.6210937 -11.60156,0 -18.749996,-8.3203124 -7.148437,-8.3203123 -7.148437,-23.4960933 0,-13.125 7.441406,-22.089844 7.499997,-9.023438 19.453127,-9.023438 11.1914,0 17.16797,7.851563 5.97656,7.851562 5.97656,21.445312 v 2.402344 z M 135.6475,-34.6875 q -0.35156,-10.371094 -4.98047,-16.113281 -4.62891,-5.742188 -12.77344,-5.742188 -8.4375,0 -14.0039,5.683594 -5.507816,5.625 -6.796878,16.171875 z"
         id="path5946"
         style="fill:none;fill-opacity:1;stroke:#ff0000;stroke-opacity:1" />
      <path
         inkscape:connector-curvature="0"
         d="m 158.90922,-75.117187 q -1.75781,0 -3.10547,-1.289063 -1.34766,-1.289062 -1.34766,-3.28125 0,-1.933594 1.34766,-3.105469 1.40625,-1.230468 3.10547,-1.230468 1.8164,0 3.16406,1.171875 1.40625,1.171875 1.40625,3.164062 0,1.875 -1.34766,3.222656 -1.34765,1.347657 -3.22265,1.347657 z M 156.2725,0 v -60 h 5.39062 V 0 Z"
         id="path5948"
         style="fill:none;fill-opacity:1;stroke:#ff0000;stroke-opacity:1" />
      <path
         inkscape:connector-curvature="0"
         d="m 221.66312,0 v -34.921875 q 0,-21.621094 -15.58593,-21.621094 -8.67188,0 -14.23828,6.386719 -5.56641,6.328125 -5.56641,15.703125 V 0 h -5.39063 v -60 h 5.39063 v 10.898438 h 0.23437 q 6.5625,-12.363282 20.50782,-12.363282 9.72656,0 14.88281,6.503907 5.15625,6.445312 5.15625,18.457031 V 0 Z"
         id="path5950"
         style="fill:none;fill-opacity:1;stroke:#ff0000;stroke-opacity:1" />
      <path
         inkscape:connector-curvature="0"
         d="m 6.5039062,65.363281 v -6.503906 q 3.0468751,2.636719 7.3828128,4.160156 4.335937,1.523438 7.5,1.523438 14.121093,0 14.121093,-11.542969 0,-3.984375 -3.105468,-6.796875 -3.105469,-2.8125 -10.078125,-5.800781 -8.613281,-3.75 -12.128906,-7.734375 Q 6.7382812,28.625 6.7382812,22.882812 q 0,-7.324218 5.5664068,-11.835937 5.624999,-4.5117188 13.828124,-4.5117188 7.734375,0 13.242188,3.1640626 v 6.0937502 q -6.679688,-4.335938 -13.828125,-4.335938 -5.917969,0 -9.550781,3.105469 -3.632813,3.046875 -3.632813,7.96875 0,4.277344 2.285157,6.972656 2.285156,2.636719 10.078124,6.09375 9.375,4.21875 12.890625,7.851563 3.515625,3.574218 3.515625,9.550781 0,7.148437 -5.390625,11.835937 -5.332031,4.628907 -14.765625,4.628907 -8.671874,0 -14.4726558,-4.101563 z"
         id="path5952"
         style="fill:none;fill-opacity:1;stroke:#ff0000;stroke-opacity:1" />
      <path
         inkscape:connector-curvature="0"
         d="M 131.48437,68 V 31.90625 q 0,-11.308594 -3.57421,-15.878906 -3.51563,-4.570313 -11.19141,-4.570313 -7.08984,0 -12.24609,6.09375 -5.156254,6.09375 -5.156254,15.292969 V 68 H 93.925781 V 31.496094 q 0,-20.039063 -15.234375,-20.039063 -7.324219,0 -12.1875,6.152344 -4.863281,6.09375 -4.863281,15.820312 V 68 H 56.25 V 8 h 5.390625 v 9.960937 H 61.875 Q 68.144531,6.5351562 80.214844,6.5351562 q 6.5625,0 11.191406,3.8085938 4.6875,3.75 6.328125,9.902344 2.812505,-6.503906 8.027345,-10.078125 5.27344,-3.6328128 11.42578,-3.6328128 19.6875,0 19.6875,24.3749998 V 68 Z"
         id="path5954"
         style="fill:none;fill-opacity:1;stroke:#ff0000;stroke-opacity:1" />
      <path
         inkscape:connector-curvature="0"
         d="M 194.53125,68 V 57.101562 h -0.23438 q -6.26953,12.363282 -19.33593,12.363282 -21.26953,0 -21.26953,-26.777344 V 8 h 5.44921 v 33.339844 q 0,12.1875 3.98438,17.695312 4.04297,5.507813 12.65625,5.507813 8.37891,0 13.53516,-6.152344 5.21484,-6.152344 5.21484,-16.40625 V 8 h 5.39062 v 60 z"
         id="path5956"
         style="fill:none;fill-opacity:1;stroke:#ff0000;stroke-opacity:1" />
      <path
         inkscape:connector-curvature="0"
         d="m 267.12891,63.546875 q 0,16.933594 -7.38282,24.785156 -7.38281,7.851563 -22.96875,7.851563 -8.67187,0 -17.87109,-4.570313 v -5.625 q 9.49219,5.273438 17.98828,5.273438 24.84375,0 24.84375,-26.25 V 57.21875 h -0.23437 q -7.08985,12.246094 -21.6211,12.246094 -11.07422,0 -18.10547,-8.027344 -6.97265,-8.027344 -6.97265,-22.382813 0,-14.355468 7.55859,-23.437499 7.55859,-9.0820318 19.92188,-9.0820318 13.24218,0 19.21875,10.9570308 h 0.23437 V 8 h 5.39063 z m -5.39063,-32.519531 q 0,-7.96875 -5.39062,-13.769532 -5.33204,-5.800781 -13.94532,-5.800781 -9.90234,0 -15.9375,7.441406 -6.03515,7.441407 -6.03515,19.6875 0,12.304688 5.50781,19.160157 5.56641,6.796875 14.64844,6.796875 9.66797,0 15.41015,-6.269532 5.74219,-6.269531 5.74219,-15.351562 z"
         id="path5958"
         style="fill:none;fill-opacity:1;stroke:#ff0000;stroke-opacity:1" />
      <path
         inkscape:connector-curvature="0"
         d="M 322.26562,68 V 55.988281 h -0.23437 q -2.87109,6.152344 -8.37891,9.84375 -5.44922,3.632813 -12.1289,3.632813 -8.55469,0 -13.53516,-4.804688 -4.98047,-4.804687 -4.98047,-12.128906 0,-15.703125 20.80078,-18.984375 l 18.45703,-2.753906 q 0,-19.335938 -14.53125,-19.335938 -9.90234,0 -19.27734,7.96875 v -6.503906 q 3.33984,-2.636719 9.02344,-4.5117187 5.74219,-1.8750001 10.78125,-1.8750001 9.25781,0 14.29687,5.7421878 5.09766,5.742187 5.09766,16.699218 V 68 Z M 305.74219,38.117187 q -9.4336,1.347657 -13.24219,4.394532 -3.80859,2.988281 -3.80859,9.785156 0,5.332031 3.51562,8.789062 3.57422,3.457032 9.90234,3.457032 8.67188,0 14.41407,-6.386719 5.74218,-6.445313 5.74218,-16.582031 v -5.859375 z"
         id="path5960"
         style="fill:none;fill-opacity:1;stroke:#ff0000;stroke-opacity:1" />
    </g>
  </g>
  <g
     id="g5105"
     inkscape:groupmode="layer"
     inkscape:label="newlayer"
     transform="translate(0,3)" />
</svg>
